<svg xmlns="http://www.w3.org/2000/svg" viewBox="0 0 500 330.68"><defs><style>.cls-1{fill:#1e1e1d;}</style></defs><g id="Camada_2" data-name="Camada 2"><g id="Camada_1-2" data-name="Camada 1"><path class="cls-1" d="M342.08,106.79a59.49,59.49,0,0,0-6.93.64c-1.79.26-4.19.35-5.79,1.27-2.16,1.24-2.64,5.53-3.12,7.69-1,4.29-2,8.73-5.9,10.7-6.47,3.24-12.79-1.67-19.49-6.87-6.13-4.77-13.09-10.18-21.56-11.63-8.24-1.42-16.37.93-23.61,4.81-6.66,3.57-12.51,8.7-18.82,12.92C223.93,135,208.27,140,193,142.31c-14.38,2.18-23.66,2.09-36.9.92a.16.16,0,0,0-.17.23,103.41,103.41,0,0,0,5.49,10.81.33.33,0,0,0,.28.16c2.67,0,5.32.11,7.94.27,3.3.2,6,.46,8.35.69,10.28,1,21.53.46,31.34-3,8.84-3.17,16.86-8.48,24.32-14.09,16.31-12.25,28.74-18.29,37.19-18,17.6.63,30.85,12,38.86,21.47,7.42,8.74,19.38,16.53,24.66,18.87a.34.34,0,0,0,.41-.12,102,102,0,0,0,17.74-52.57C352.54,107,343,106.77,342.08,106.79Z"/><path class="cls-1" d="M310,171.79c-7.61-4.81-15.3-9.51-23.53-13.13-5.12-2.25-10.51-3.91-16.15-2.95a58.67,58.67,0,0,0-11.65,3.7c-11.32,4.49-22.59,9.09-34.11,13.08a133.33,133.33,0,0,1-20.92,5.93c-6.05,1.06-13.55.94-21.69.5a.17.17,0,0,0-.12.29c1.36,1.22,2.77,2.39,4.2,3.53a.27.27,0,0,0,.21.07,51.61,51.61,0,0,1,5.87.17c13.07,1.14,26.08,3,39,5.11a57.67,57.67,0,0,0,12.22,1.11c4.08-.23,8.12-1.47,12.07-2.43,12.61-3.1,26-6.06,39-5.46a45,45,0,0,1,10.31,1.62c1.93.56,4,1.31,6,2.13a.33.33,0,0,0,.32,0,103.38,103.38,0,0,0,8.24-6.81.32.32,0,0,0-.05-.52C316.19,175.75,313.09,173.76,310,171.79Z"/><path class="cls-1" d="M303.41,190.21a.34.34,0,0,0-.06-.6l-.88-.28c-5.17-1.51-10.73-1.49-16.05-1.12a117.61,117.61,0,0,0-17.92,2.59c-2.61.59-5.25,1-7.85,1.69-2.8.73-5.57,1.56-8.39,2.19a44.58,44.58,0,0,1-15.35,1c-12.75-1.61-25.4-3.87-38.18-5.28l-1.42-.15a.17.17,0,0,0-.1.31,102.6,102.6,0,0,0,106.2-.36Z"/><path class="cls-1" d="M303.76,145.8c-7.05-8.31-18.53-18.32-33.24-18.85-6.21-.23-17.89,5.78-32.11,16.46-8,6.05-16.72,11.67-26.24,15.12-11.07,4-23.37,4.65-35,3.54-2.31-.22-4.89-.47-8.06-.66-1-.06-1.94-.08-2.9-.11a.17.17,0,0,0-.15.26,105.22,105.22,0,0,0,8,10.05.38.38,0,0,0,.23.11c6.52.43,13,1.12,19.57.81a71.75,71.75,0,0,0,8.28-.89c10-1.64,19.78-5.15,29.2-8.79,8-3.09,16-6.27,24-9.41s15.85-5.69,24.54-4.11c5.26.95,10.08,3.28,14.86,5.59,6.85,3.3,13.12,7.39,19.56,11.38,2.84,1.83,6.45,4.14,10.2,6.44a.32.32,0,0,0,.41-.06q2.73-2.91,5.23-6a.33.33,0,0,0-.12-.5C323.1,162.81,311.33,154.72,303.76,145.8Z"/><path class="cls-1" d="M193.79,110.15a137.21,137.21,0,0,1,15.65-1.75c5.15-.29,10.36-.13,15.45-1.08,6.57-1.22,11-4.27,14.36-10,3.8-6.56,9.77-10.74,16-14.77,6.9-4.49,16-10.72,24.7-9,5.28,1.08,10.29,3.29,15.26,5.32,16.29,6.64,34.74,8,52.15,8.82l3.85.16a.34.34,0,0,0,.34-.38A102.6,102.6,0,0,0,147.43,102.6a104,104,0,0,0,.9,13.41.34.34,0,0,0,.34.29,150.66,150.66,0,0,0,22.62-1.88C178.83,113.18,186.27,111.45,193.79,110.15Z"/><path class="cls-1" d="M191.74,135.68a101.27,101.27,0,0,0,47.54-20c10.09-7.84,23-14.44,36.12-14.17a36.15,36.15,0,0,1,5.29.5c10.43,1.8,18.53,8.09,25,13.15,1.9,1.48,8.25,7.71,11,6.05a1.48,1.48,0,0,0,.58-.7c2.06-4.94,2.09-11,5.57-15.36,2.26-2.79,5.74-3.43,9.09-4,1.43-.23,15.72-1.7,19.61-.82h0c.19,0,.37.09.53.14a.33.33,0,0,0,.42-.33c0-1.71-.13-3.41-.25-5.1a.32.32,0,0,0-.32-.3c-19.28-.51-38.65-2.42-57-8.55l-1.45-.49q-5.16-1.77-10.21-3.8c-3.41-1.38-6.94-2.39-10.57-1.16-4,1.39-7.75,4-11.42,6.12a65.87,65.87,0,0,0-9.86,6.87c-3.14,2.7-4.87,5.72-6.77,9.37-5.21,10-18.82,11.56-28.81,11.78a127,127,0,0,0-27,3c-5.07,1.15-10.55,2.2-16.28,3.14a156.83,156.83,0,0,1-23,2,.17.17,0,0,0-.16.2A101.08,101.08,0,0,0,153,136a.32.32,0,0,0,.28.22C168.14,137.64,176.92,137.94,191.74,135.68Z"/><path class="cls-1" d="M178.9,270c-5.9,3.1-17.19,4.79-20.48,5.07a1,1,0,0,0-.87.95v53a1.72,1.72,0,0,0,1.72,1.72h19.52a1.72,1.72,0,0,0,1.72-1.72v-58A1.09,1.09,0,0,0,178.9,270Z"/><path class="cls-1" d="M108.28,266V229.25a1.08,1.08,0,0,0-1.57-1c-6.23,3.34-18.42,5.15-21.86,5.44a1,1,0,0,0-.88,1v35.18c0,14.84-2.26,46.87-25.16,46.87-12.65,0-28.85-8.91-31.18-36.24-1.76-20.34,3.19-37.91,13.37-37.91,5.79,0,12.14,9.27,19.45,21.57a2,2,0,0,0,3.34-.23L73.91,247a2.89,2.89,0,0,0-1.18-4.08c-7.41-3.74-19.5-7.06-26.8-7.06C20.55,235.88,0,259.74,0,283.58c0,23.2,17.93,47.1,48.14,47.1,17.09,0,44.6-6.2,60.14-54.94,1.92-6,3.25-9.36,7.75-10,6.43-.93,7.62,6.42,7.62,17.38V329a1.72,1.72,0,0,0,1.72,1.72h20.85a1.72,1.72,0,0,0,1.72-1.72V283.1C147.94,249.47,112.82,257.44,108.28,266Z"/><path class="cls-1" d="M497.16,269.82c-5.9,3.1-17.19,4.78-20.48,5.06a1,1,0,0,0-.87,1V329a1.72,1.72,0,0,0,1.72,1.72h19.53a1.72,1.72,0,0,0,1.72-1.72V270.77A1.09,1.09,0,0,0,497.16,269.82Z"/><path class="cls-1" d="M280,260c-17.69,0-33.72,15.78-33.72,35.34s16,35.3,33.72,35.3,33.61-15.78,33.61-35.3S297.56,260,280,260ZM283.65,326c-5.71-.5-12.12-14.62-14.23-31.52s1-30.22,6.78-29.72,12.12,14.62,14.23,31.56S289.4,326.48,283.65,326Z"/><path class="cls-1" d="M246.8,315.67c-4.12,2.39-11,4.68-15.94,4.68-11.06,0-18.07-11.08-19.81-25.89-2-17,1-30.22,6.78-29.73,3.45.3,8.27,6.95,12.29,15.22a2.48,2.48,0,0,0,4.4.1l5.61-10.33a2.91,2.91,0,0,0-.82-3.72,29.48,29.48,0,0,0-17.71-6c-17.69,0-33.71,15.78-33.71,35.34s16,35.3,33.71,35.3c9.48,0,19.61-5,26.3-13.73A.86.86,0,0,0,246.8,315.67Z"/><path class="cls-1" d="M165.84,238.21c-6.74,1.79-10.92,9.29-9.22,16.71s8.62,11.82,15.35,10c6.88-1.84,11.09-9.22,9.39-16.64S172.71,236.37,165.84,238.21Z"/><path class="cls-1" d="M490.24,264.78c6.87-1.84,11.08-9.22,9.38-16.64S491,236.21,484.1,238s-10.92,9.29-9.22,16.71S483.5,266.58,490.24,264.78Z"/><path class="cls-1" d="M468.35,315.54c-15.83,8-23.46,4.77-29.34-2.65,7.5-6.08,30.11-28.05,28.5-33.27-2.33-7.54-7.91-19.68-25.57-19.68-15,0-35.87,16.53-32,40.9A35.07,35.07,0,0,0,413,311a32.89,32.89,0,0,0,3.26,5.25c-25.49,12.07-28.58-28-28.58-28,8.54-5.62,15.08-14.93,15.08-24.14,0-18.69-16.84-26.32-36-26.17-3.58,0-18.67.29-28,.38a1.71,1.71,0,0,0-1.69,1.72V329a1.72,1.72,0,0,0,1.72,1.72h21.54a1.72,1.72,0,0,0,1.72-1.72V296.81a26.5,26.5,0,0,0,5.32-1.06c1.91,3.41,5.52,34.93,29.41,34.93,8.22,0,15.47-1.71,25.92-7.83a32.08,32.08,0,0,0,21.42,7.74,28.16,28.16,0,0,0,19.11-7.43C464.54,321.94,472.33,315.9,468.35,315.54ZM363.63,289.6a1.89,1.89,0,0,1-1.57-.51V251.74c0-1.77.66-4.43,4.68-4.43,4.93,0,11.21,7.12,11.21,18.33C378,281,373.27,289.6,363.63,289.6Zm75.77-25c6,.23,11.51,18.68,11.6,25,0,2.33-11.49,11.84-16,15.25C428.78,288.47,431.49,264.3,439.4,264.61Z"/></g></g></svg>