<svg xmlns="http://www.w3.org/2000/svg" viewBox="0 0 288 105.36"><defs><style>.cls-1{fill:#231f20;}</style></defs><title>peta</title><g id="Layer_2" data-name="Layer 2"><g id="Layer_1-2" data-name="Layer 1"><path class="cls-1" d="M7.13,51.57a15.69,15.69,0,0,1-2.8,1.22,19.27,19.27,0,0,1,3,1.37,8.64,8.64,0,0,1,2.54,2.53,11.56,11.56,0,0,1,2,5.75q.21,3.12.21,6.07.1,1.8.11,3.54V87.41c0,1.76,0,3.31.11,4.65a25.17,25.17,0,0,0,.42,3.59,13,13,0,0,0,.9,2.85,11.25,11.25,0,0,0,1.53,2.43,9.44,9.44,0,0,0,3.11,2.59A19.41,19.41,0,0,0,22,104.83l-.11.53a41.08,41.08,0,0,1-4.75-.69,12,12,0,0,1-4.65-2.16c-.35-.28-.78-.63-1.27-1.06a10.36,10.36,0,0,1-1.58-1.79,13.31,13.31,0,0,1-1.53-3.38,21,21,0,0,1-.79-3.86q-.21-2-.26-3.9C7,87.22,7,86,7,85V71.15a91.88,91.88,0,0,0-.42-9.81A10.8,10.8,0,0,0,3.8,55.11,8.52,8.52,0,0,0,2,53.68a8.78,8.78,0,0,0-2-.79v-.53a11.49,11.49,0,0,0,3.06-1.27,7.21,7.21,0,0,0,2.21-2.64A12.59,12.59,0,0,0,6.6,43.18q.16-3.06.27-7.92V19.32c0-.85,0-1.65.11-2.43a47.39,47.39,0,0,1,.9-6.71A12.21,12.21,0,0,1,11.4,4a12.16,12.16,0,0,1,4-2.69A24.29,24.29,0,0,1,22,0l-.11.53A29.86,29.86,0,0,0,18,2a9.2,9.2,0,0,0-3.32,2.8,10.28,10.28,0,0,0-2.11,5.17A73.55,73.55,0,0,0,12,18.05V34.31q0,2.85-.21,5.7a47.31,47.31,0,0,1-.48,4.8,10,10,0,0,1-2,4.59A7.23,7.23,0,0,1,7.13,51.57Zm278.08-.42a7.74,7.74,0,0,1-1.53-1.53,12.08,12.08,0,0,1-1.48-2.86,16.83,16.83,0,0,1-.79-3.27,34,34,0,0,1-.31-4.06q-.06-2.27-.05-5.12V20.48q0-3-.11-5.22a26.74,26.74,0,0,0-.47-4.07,17.3,17.3,0,0,0-1-3.27,13.51,13.51,0,0,0-1.58-2.75,11.46,11.46,0,0,0-2.48-2.38,14.62,14.62,0,0,0-2.59-1.42,12.87,12.87,0,0,0-2.32-.74L268.89.32c-.49-.07-1-.12-1.42-.16s-.9-.09-1.32-.16L266,.53A24.88,24.88,0,0,1,269.79,2a9.4,9.4,0,0,1,3.11,2.58,10.73,10.73,0,0,1,2.43,5.23,50.58,50.58,0,0,1,.53,8.29v15.1c0,1.05,0,2.15.11,3.27,0,2.18.09,4.42.26,6.7a11,11,0,0,0,2.48,6.17A8.58,8.58,0,0,0,281,51.46a15,15,0,0,0,2.64,1.22,18.82,18.82,0,0,0-2.43,1,8.21,8.21,0,0,0-3.17,3,9.94,9.94,0,0,0-1.37,3.91c-.21,1.48-.39,2.92-.53,4.33q-.21,3-.21,5.91V87.31q-.11,5-.48,8a11.14,11.14,0,0,1-1.85,5.12,9.54,9.54,0,0,1-2.06,2.06,13,13,0,0,1-2.17,1.27,15.42,15.42,0,0,1-1.95.74l-1.32.37-.11.53a38.68,38.68,0,0,0,5.38-.74,10.41,10.41,0,0,0,4.86-2.85,13,13,0,0,0,3.49-5.44,32.81,32.81,0,0,0,1.37-9.24V67.88c0-.92,0-1.86.05-2.85s.11-2,.21-2.9a22.55,22.55,0,0,1,.37-2.38c.07-.28.21-.75.42-1.43a7.58,7.58,0,0,1,1.06-2.06,5.69,5.69,0,0,1,2.06-2.06A18.52,18.52,0,0,1,288,53.1v-.53A15.16,15.16,0,0,1,285.21,51.15Zm-226.84,25L48.51,51.7H44L58.36,86.5,72.7,51.7H68.18Zm30.29,8.59H106.4V81H92.77V68.48H106V64.71H92.77V55.46H106.4V51.7H88.65Zm53-12.89h8.55c-.17,5.39-5.7,9.82-10.83,9.82-7.14,0-12.84-6.58-12.84-13.5a13,13,0,0,1,23.58-8L153,57.4a17.21,17.21,0,0,0-30.6,10.91c0,9.16,7.45,17.14,16.71,17.14s15.64-7,15.64-16V68.09H141.64ZM184.25,50.3,200,84.75H195.6l-3.77-8.29H176.66l-3.77,8.29h-4.43Zm5.87,22.39-5.87-13.37-5.88,13.37Zm50.23,3.42-24.81-26V84.75h4.12V60.11l24.81,26V51.7h-4.12Zm-164-53.93,3.71,0v13H77.19V33H74.28l-1,2.14H70.05Zm.86,4.54-1.72,3.73h1.73V26.73Zm-9.7,8.5,2.85-10.16L73.14,25l.76-2.81-8.6.05L64.49,25h2.59L64.32,35.23Zm-13-3.31a11.58,11.58,0,0,1,2.32-6.64c1.43-1.82,3.47-3.73,5.95-2.92a1.86,1.86,0,0,1,1,.79,2.7,2.7,0,0,1-.25,2.71c-1.31,2-3.63,2.12-5.61,2.77l-.9.26a6.32,6.32,0,0,0-.35,1.51c-.12,1.32-.07,2.88,1.26,3.47a3.4,3.4,0,0,0,3.07-1.15,10.49,10.49,0,0,0,.88-1.14.62.62,0,0,1,.31.12c0,.28-.25.48-.38.72-1.27,1.68-3,3.7-5.41,3.1C54.88,34.94,54.53,33.34,54.47,31.92Zm4.87-4.39c2.69-.88,4.23-4.18,2.12-4.9S57.31,28,57.31,28,56.64,28.4,59.34,27.53ZM46.89,35.18H44l3.5-13h3.42s4.68-.54,4.08,4.07c-.62,4.77-4.9,4.73-6.85,4.56h0Zm2-7a2.83,2.83,0,0,0,2.38-.6c.67-.63,1-2.29.55-2.63s-1.81-.18-2-.15l-.54,1.93Zm44.73.62H89.41v2h4.16Zm15-6.77,4.89,13.24h-2.69l-1-2.72h-4.48l-1.06,2.72h-2.65l5-13.24Zm.51,8.46-1.6-4.69h0l-1.42,4.69Zm16.22,4.77h-2.51V22.38h3.42c2.7,0,4.47,1.08,4.47,4,0,2.73-1.49,4.07-4.12,4.07h-1.25Zm0-6.91h.51c1.49,0,2.29-.32,2.29-2s-1-1.89-2.35-1.89h-.44Zm17.58,6.91h-2.51V22.38h3.42c2.7,0,4.46,1.08,4.46,4,0,2.73-1.48,4.07-4.12,4.07h-1.25Zm0-6.91h.52c1.49,0,2.29-.32,2.29-2s-1-1.89-2.36-1.89h-.45Zm20.15,1.47,3.65,5.44h-3l-3.13-5.2h0v5.2H158V22.38h3.4c2.55,0,4.31,1.12,4.31,3.88A3.42,3.42,0,0,1,163.07,29.84Zm.12-3.51c0-1.59-1-1.89-2.34-1.89h-.34v3.88h.33C162.21,28.31,163.19,27.9,163.19,26.33Zm12.29,2.48C175.47,25,178,22,181.85,22s6.37,2.94,6.37,6.77-2.45,6.81-6.37,6.81S175.47,32.61,175.47,28.81Zm2.59-.1c0,2,1,4.44,3.78,4.44s3.78-2.45,3.78-4.44a3.8,3.8,0,1,0-7.56,0Zm24.62,2.36h0l-3.1-8.69h-2.7l4.93,13.24h1.47l5-13.24h-2.71Zm21.48,2H220V29.6h4V27.41h-4V24.57h4.16V22.38H217.5V35.28h6.67ZM238,35.28h-3.58V22.38H238a6.11,6.11,0,0,1,6.23,6.46A6.16,6.16,0,0,1,238,35.28Zm-.65-2.19c3.09,0,4.29-1.71,4.29-4.26,0-2.81-1.44-4.26-4.29-4.26h-.41v8.52Z"/></g></g></svg>