<svg id="Camada_1" data-name="Camada 1" xmlns="http://www.w3.org/2000/svg" viewBox="0 0 250 250"><defs><style>.cls-1{fill:#1e1e1d;}</style></defs><path class="cls-1" d="M81.43,66.49a48.33,48.33,0,0,1,2.5-46A100.55,100.55,0,0,0,35.56,66.74,24.72,24.72,0,0,1,39,66.49Z"/><path class="cls-1" d="M168.57,66.49H211a24.72,24.72,0,0,1,3.46.25,100.55,100.55,0,0,0-48.37-46.27,48.33,48.33,0,0,1,2.5,46Z"/><path class="cls-1" d="M211,69H164.66l1.68-3.53a45.76,45.76,0,1,0-82.68,0L85.34,69H39a22,22,0,0,0-22,22v51.14A107.93,107.93,0,0,0,120.28,249.9c1.55.07,3.11.1,4.65.1a106.61,106.61,0,0,0,76.3-32.09,109.2,109.2,0,0,0,31.7-77.2V90.92A22,22,0,0,0,211,69ZM168.25,206.08a8.39,8.39,0,0,1,1,4v.67a8.51,8.51,0,0,1-.95,4.06,6.6,6.6,0,0,1-2.66,2.73,7.87,7.87,0,0,1-3.87,1,8.1,8.1,0,0,1-3.91-.94,6.56,6.56,0,0,1-2.66-2.71,8.42,8.42,0,0,1-1-4.08v-.55a8.74,8.74,0,0,1,.92-4.06,6.64,6.64,0,0,1,2.65-2.73,8.4,8.4,0,0,1,7.8,0A6.6,6.6,0,0,1,168.25,206.08Zm-17.09,4.09v.55a7.53,7.53,0,0,1-1,3.82,7.12,7.12,0,0,1-2.76,2.71,8.12,8.12,0,0,1-3.92,1H137.7v-15.6h5.58a8.42,8.42,0,0,1,4,1,7.1,7.1,0,0,1,2.83,2.71A7.46,7.46,0,0,1,151.16,210.17Zm-27.19-1v9.08h-4.52v-15.6H124l5.27,9.08v-9.08h4.51v15.6h-4.51Zm-33.85,9.08H87.2L83.49,207.5l.47,8.33v2.41H79.42v-15.6h6l3.26,10,3.25-10h6v15.6H93.37v-2.41l.46-8.34ZM55.68,162.83a2.27,2.27,0,0,0,2.11,1c1.76,0,2.63-.72,2.59-2.18h4.51a5.22,5.22,0,0,1-2,4.13,8,8,0,0,1-5.07,1.54,7,7,0,0,1-5.34-2,8.1,8.1,0,0,1-1.91-5.78V159a9.16,9.16,0,0,1,.88-4.13,6.32,6.32,0,0,1,2.5-2.71,7.43,7.43,0,0,1,3.75-.94,7.84,7.84,0,0,1,5.1,1.56,5.86,5.86,0,0,1,2.15,4.25H60.41a2.08,2.08,0,0,0-.7-1.71,3.05,3.05,0,0,0-2-.62q-2.4,0-2.58,3.62v1.19A6.64,6.64,0,0,0,55.68,162.83ZM64,177.07h6l3.25,10,3.26-10h6v15.6H78v-2.41l.45-8.35L74.7,192.67H71.78l-3.71-10.74.47,8.33v2.41H64Zm3-10,6-15.6h4.34l6.16,15.6H79.05l-1-2.73H72.5l-.92,2.73Zm82.66,25.58h-2.92l-3.71-10.74.47,8.33v2.41H139v-15.6h6l3.25,10,3.26-10h6v15.6H153v-2.41l.45-8.35Zm-40.09-15.6a8.37,8.37,0,0,1,4,1,7.12,7.12,0,0,1,2.82,2.7,7.46,7.46,0,0,1,1,3.85v.55a7.5,7.5,0,0,1-1,3.82,7.12,7.12,0,0,1-2.76,2.71,8,8,0,0,1-3.92,1H104v-15.6Zm-.55-10v-15.6h4.52v15.6ZM115.51,122c-5.91,0-11.26-5.27-11.26-11.79s5.35-11.81,11.26-11.81a9.92,9.92,0,0,1,5.92,2,1,1,0,0,1,.27,1.25l-1.87,3.45a.83.83,0,0,1-1.47,0c-1.35-2.76-3-5-4.11-5.08-1.92-.17-2.93,4.26-2.26,9.93.58,5,2.92,8.65,6.62,8.65a12.26,12.26,0,0,0,5.32-1.56.29.29,0,0,1,.37.43A11.4,11.4,0,0,1,115.51,122ZM98.93,100a4.23,4.23,0,0,1-5.13-3.35,4.64,4.64,0,0,1,3.08-5.58,4.27,4.27,0,0,1,5.19,3.37A4.63,4.63,0,0,1,98.93,100Zm2.85,2v19.39a.56.56,0,0,1-.57.57H94.69a.57.57,0,0,1-.58-.57V103.7a.32.32,0,0,1,.29-.32,23.4,23.4,0,0,0,6.84-1.7A.37.37,0,0,1,101.78,102ZM99.72,68.85a.11.11,0,0,1-.08,0A36.2,36.2,0,0,1,97,65.46a.06.06,0,0,1,.05-.09l1,0c1.06.06,1.92.15,2.69.22a27.08,27.08,0,0,0,11.69-1.18,34.38,34.38,0,0,0,8.77-5.05c4.75-3.57,8.65-5.58,10.72-5.5,4.92.18,8.76,3.52,11.11,6.29a30.47,30.47,0,0,0,8.78,6.8.12.12,0,0,1,0,.17c-.56.7-1.14,1.37-1.75,2a.12.12,0,0,1-.14,0c-1.25-.77-2.46-1.55-3.41-2.16a70.73,70.73,0,0,0-6.53-3.8,19.77,19.77,0,0,0-5-1.87c-2.9-.52-5.52.33-8.19,1.38s-5.33,2.11-8,3.14A49.46,49.46,0,0,1,109,68.83a23,23,0,0,1-2.76.29A54.94,54.94,0,0,1,99.72,68.85Zm2.54,2.41a33.15,33.15,0,0,0,7.24-.17,44.55,44.55,0,0,0,7-2c3.85-1.33,7.62-2.87,11.4-4.37a19.31,19.31,0,0,1,3.89-1.23,9.39,9.39,0,0,1,5.4,1A60.56,60.56,0,0,1,145,68.88l3.11,2a.1.1,0,0,1,0,.17,33.24,33.24,0,0,1-2.75,2.28.11.11,0,0,1-.11,0c-.69-.27-1.37-.52-2-.71a14.34,14.34,0,0,0-3.44-.54c-4.36-.2-8.83.79-13,1.82a22.25,22.25,0,0,1-4,.81,18.67,18.67,0,0,1-4.08-.37c-4.33-.7-8.67-1.32-13-1.7a16.59,16.59,0,0,0-2-.06l-.07,0c-.48-.38-1-.78-1.41-1.18A.06.06,0,0,1,102.26,71.26ZM135,98.36c5.88,0,11.23,5.27,11.23,11.81S140.89,122,135,122s-11.26-5.27-11.26-11.79S129.1,98.36,135,98.36ZM107.36,75.15a.05.05,0,0,1,0-.1l.47,0c4.27.47,8.5,1.23,12.76,1.76a15,15,0,0,0,5.12-.33c1-.22,1.87-.49,2.81-.74s1.75-.36,2.62-.56a40.09,40.09,0,0,1,6-.87,15.4,15.4,0,0,1,5.37.38l.29.09a.11.11,0,0,1,0,.2,34.26,34.26,0,0,1-35.48.12Zm18.49,86.54a7.11,7.11,0,0,0-2.16-.79,20,20,0,0,1-2.6-.76,6.41,6.41,0,0,1-1.73-1,3.24,3.24,0,0,1-1-1.33A4.77,4.77,0,0,1,118,156a4.06,4.06,0,0,1,.79-2.43,5.1,5.1,0,0,1,2.18-1.68,8,8,0,0,1,3.1-.59A8,8,0,0,1,129,152.6a4.19,4.19,0,0,1,1.81,3.58h-4.53a1.64,1.64,0,0,0-.59-1.25,2.47,2.47,0,0,0-2.88-.11,1.21,1.21,0,0,0-.52,1,1.12,1.12,0,0,0,.53,1,6.44,6.44,0,0,0,1.87.71,10.29,10.29,0,0,1,4.69,1.91,4.23,4.23,0,0,1,1.36,3.33,4,4,0,0,1-1.67,3.38,7.62,7.62,0,0,1-4.59,1.24,9.78,9.78,0,0,1-3.62-.64,5.46,5.46,0,0,1-2.46-1.82,4.72,4.72,0,0,1-.86-2.83H122a2,2,0,0,0,.62,1.67,3.48,3.48,0,0,0,2.08.48,2,2,0,0,0,1.28-.36,1.21,1.21,0,0,0,.45-1A1.32,1.32,0,0,0,125.85,161.69Zm0,15.38h4.34l6.16,15.6h-4.54l-1-2.73h-5.58l-.93,2.73h-4.52Zm8.8-10v-15.6h11.87V155h-7.34v2.32h6.13v3.48h-6.13v2.84h7.27v3.48Zm19,0V155h-4.82v-3.48h14.33V155h-5v12.12Zm-.46-102a28,28,0,0,1-8.24-6.3c-2.68-3.16-7.1-7-13-7.18-2.82-.09-7,1.93-12.42,6a31.31,31.31,0,0,1-8.13,4.71,24.72,24.72,0,0,1-10.47,1c-.79-.08-1.68-.16-2.79-.23-.87-.05-1.76-.08-2.65-.09A.1.1,0,0,1,95.4,63a33.08,33.08,0,0,1-1.84-3.61.05.05,0,0,1,.06-.07A45.87,45.87,0,0,0,106,59a36.44,36.44,0,0,0,14.66-5.34c2.11-1.41,4.06-3.13,6.29-4.32a12.33,12.33,0,0,1,7.89-1.61c2.82.49,5.15,2.29,7.2,3.89,2.23,1.74,4.35,3.38,6.51,2.3,1.31-.66,1.65-2.15,2-3.58.16-.72.32-2.15,1-2.57a5.82,5.82,0,0,1,1.94-.43,22.27,22.27,0,0,1,2.31-.21c.31,0,3.5.06,3.48.37a34,34,0,0,1-5.93,17.56A.1.1,0,0,1,153.18,65.13Zm5.94-20.08L159,45h0c-1.3-.29-6.08.2-6.55.28a4.48,4.48,0,0,0-3,1.33c-1.17,1.44-1.17,3.47-1.86,5.13a.5.5,0,0,1-.2.23c-.93.56-3.05-1.53-3.68-2-2.18-1.69-4.88-3.79-8.37-4.39a10.41,10.41,0,0,0-1.77-.17c-4.36-.09-8.69,2.11-12.06,4.73a33.82,33.82,0,0,1-15.88,6.69A44.63,44.63,0,0,1,92.69,57a.1.1,0,0,1-.09-.07,32.42,32.42,0,0,1-1.17-4.27.05.05,0,0,1,0-.07,52.14,52.14,0,0,0,7.67-.66c1.91-.31,3.74-.67,5.44-1.05a42.53,42.53,0,0,1,9-1c3.34-.07,7.88-.6,9.62-3.94a10,10,0,0,1,2.26-3.13,23.4,23.4,0,0,1,3.3-2.29,21.57,21.57,0,0,1,3.82-2,4.93,4.93,0,0,1,3.53.38c1.12.46,2.26.88,3.41,1.27l.48.16a65.4,65.4,0,0,0,19.06,2.86.11.11,0,0,1,.1.1q.06.85.09,1.71A.12.12,0,0,1,159.12,45.05ZM92.28,151.49l3.25,9.95,3.26-9.95h6v15.6h-4.55v-2.41l.45-8.34L97,167.09H94.08l-3.71-10.74.46,8.33v2.41H86.29v-15.6Zm-.68,37.37a2.36,2.36,0,0,0,1.68.54,2.27,2.27,0,0,0,1.67-.54,2.53,2.53,0,0,0,.52-1.8v-10H100v10a5.41,5.41,0,0,1-1.76,4.29,8.78,8.78,0,0,1-9.92,0,5.31,5.31,0,0,1-1.83-4.19V177.07H91v10A2.44,2.44,0,0,0,91.6,188.86Zm10.32,13.78h4.54v10a2.4,2.4,0,0,0,.56,1.8,2.27,2.27,0,0,0,1.67.55,2.21,2.21,0,0,0,1.67-.55,2.53,2.53,0,0,0,.53-1.8v-10h4.54v10a5.37,5.37,0,0,1-1.77,4.29,7.3,7.3,0,0,1-5,1.54,7.38,7.38,0,0,1-4.94-1.54,5.26,5.26,0,0,1-1.83-4.19Zm90.49-40.95a7.11,7.11,0,0,0-2.16-.79,20,20,0,0,1-2.6-.76,6.26,6.26,0,0,1-1.73-1,3.24,3.24,0,0,1-1-1.33,4.77,4.77,0,0,1-.33-1.87,4,4,0,0,1,.79-2.43,5.1,5.1,0,0,1,2.18-1.68,8,8,0,0,1,3.1-.59,8,8,0,0,1,4.86,1.32,4.19,4.19,0,0,1,1.81,3.58H192.8a1.64,1.64,0,0,0-.59-1.25,2.47,2.47,0,0,0-2.88-.11,1.21,1.21,0,0,0-.52,1,1.12,1.12,0,0,0,.53,1,6.44,6.44,0,0,0,1.87.71,10.29,10.29,0,0,1,4.69,1.91,4.23,4.23,0,0,1,1.36,3.33,4,4,0,0,1-1.67,3.38,7.64,7.64,0,0,1-4.6,1.24,9.76,9.76,0,0,1-3.61-.64,5.46,5.46,0,0,1-2.46-1.82,4.72,4.72,0,0,1-.86-2.83h4.54a2,2,0,0,0,.62,1.67,3.48,3.48,0,0,0,2.08.48,2,2,0,0,0,1.27-.36,1.19,1.19,0,0,0,.46-1A1.34,1.34,0,0,0,192.41,161.69Zm-7.77,22.78v.67a8.54,8.54,0,0,1-.94,4.07,6.58,6.58,0,0,1-2.66,2.72,8.48,8.48,0,0,1-7.78,0,6.52,6.52,0,0,1-2.67-2.71,8.53,8.53,0,0,1-1-4.08v-.54a8.59,8.59,0,0,1,.93-4.06,6.44,6.44,0,0,1,2.64-2.73,8.36,8.36,0,0,1,7.8,0,6.69,6.69,0,0,1,2.66,2.69A8.42,8.42,0,0,1,184.64,184.47Zm-7.47-17.38-1-2.73h-5.58l-.93,2.73h-4.52l6-15.6h4.34l6.16,15.6Zm23.27-45.7V103.64a.32.32,0,0,1,.29-.32,23,23,0,0,0,6.84-1.69.36.36,0,0,1,.54.32v19.44a.56.56,0,0,1-.57.57H201A.57.57,0,0,1,200.44,121.39ZM203.21,91a4.28,4.28,0,0,1,5.19,3.38,4.61,4.61,0,0,1-3.14,5.55,4.22,4.22,0,0,1-5.13-3.34A4.65,4.65,0,0,1,203.21,91ZM176,99.73c0,3.08-2.19,6.19-5,8.07,0,0,1,13.38,9.55,9.35a10.47,10.47,0,0,1-1.09-1.75,11.74,11.74,0,0,1-1-3.41c-1.29-8.14,5.7-13.66,10.69-13.66,5.91,0,7.77,4,8.55,6.57.53,1.75-7,9.09-9.52,11.12,2,2.48,4.51,3.56,9.8.88,1.33.13-1.27,2.14-1.71,2.55a9.37,9.37,0,0,1-6.39,2.48,10.68,10.68,0,0,1-7.15-2.59A15.76,15.76,0,0,1,174,122c-8,0-9.19-10.53-9.82-11.67a8.87,8.87,0,0,1-1.78.36v10.74a.57.57,0,0,1-.58.57h-7.19a.57.57,0,0,1-.58-.57V91.69a.58.58,0,0,1,.57-.58c3.1,0,8.15-.12,9.34-.12C170.41,90.94,176,93.49,176,99.73ZM125,11.48a34.28,34.28,0,0,1,33.9,29.24.11.11,0,0,1-.11.13l-1.29-.06c-5.81-.28-12-.73-17.42-2.94a29.09,29.09,0,0,0-5.1-1.78c-2.89-.59-6,1.49-8.25,3A15.27,15.27,0,0,0,121.41,44a6.52,6.52,0,0,1-4.8,3.35,42.33,42.33,0,0,1-5.16.36,46,46,0,0,0-5.23.58c-2.51.44-5,1-7.52,1.43a50.37,50.37,0,0,1-7.56.63.12.12,0,0,1-.11-.1,34.75,34.75,0,0,1-.3-4.48A34.28,34.28,0,0,1,125,11.48ZM56.82,90.29a24,24,0,0,1,8.95,2.36,1,1,0,0,1,.4,1.36l-3.38,5.65a.67.67,0,0,1-1.12.08c-2.44-4.11-4.56-7.21-6.5-7.21-3.4,0-5.05,5.87-4.47,12.66.78,9.13,6.2,12.11,10.42,12.11,7.65,0,8.41-10.7,8.41-15.66V89.89a.33.33,0,0,1,.29-.32c1.15-.1,5.22-.7,7.31-1.82a.36.36,0,0,1,.52.33v12.27c1.52-2.86,13.25-5.52,13.25,5.72v15.32a.57.57,0,0,1-.57.57h-7a.56.56,0,0,1-.57-.57V106.07c0-3.67-.4-6.12-2.55-5.81-1.5.22-1.95,1.33-2.59,3.35C72.46,119.89,63.27,122,57.56,122a15.73,15.73,0,0,1-16.09-15.73C41.47,98.26,48.34,90.29,56.82,90.29ZM194.49,215.2A99.8,99.8,0,0,1,125,243.3c-1.47,0-2.94,0-4.41-.1A101.21,101.21,0,0,1,23.77,142.07a.88.88,0,1,1,1.76,0,99.21,99.21,0,0,0,95.12,99.37,98.09,98.09,0,0,0,72.62-27.52,101.66,101.66,0,0,0,31.19-73.08.89.89,0,1,1,1.77,0A103.48,103.48,0,0,1,194.49,215.2Z"/><path class="cls-1" d="M161.73,205.87q-3,0-2.95,4.38v.47a5.84,5.84,0,0,0,.74,3.16,2.64,2.64,0,0,0,4.35,0,5.47,5.47,0,0,0,.8-3.08v-.65a5.57,5.57,0,0,0-.77-3.18A2.5,2.5,0,0,0,161.73,205.87Z"/><path class="cls-1" d="M177.14,180.29c-2,0-2.95,1.46-2.95,4.38v.47a5.84,5.84,0,0,0,.74,3.16,2.47,2.47,0,0,0,2.24,1.15,2.42,2.42,0,0,0,2.11-1.12,5.49,5.49,0,0,0,.81-3.08v-.66a5.53,5.53,0,0,0-.78-3.18A2.51,2.51,0,0,0,177.14,180.29Z"/><polygon class="cls-1" points="128.02 182.03 127.95 181.74 127.9 182.01 126.25 186.85 129.72 186.85 128.02 182.03"/><path class="cls-1" d="M143.47,206.12h-1.24v8.64h1.19a3.06,3.06,0,0,0,2.41-.84,4.62,4.62,0,0,0,.78-2.92v-.85a4.89,4.89,0,0,0-.75-3.09A3,3,0,0,0,143.47,206.12Z"/><polygon class="cls-1" points="75.3 156.46 75.23 156.16 75.18 156.43 73.53 161.28 77 161.28 75.3 156.46"/><path class="cls-1" d="M136.24,120.39c1.92.17,3-4.27,2.27-9.91s-2.85-10.38-4.76-10.55-3,4.27-2.26,9.93S134.33,120.23,136.24,120.39Z"/><path class="cls-1" d="M112.16,188.34a4.61,4.61,0,0,0,.78-2.91v-.86a4.89,4.89,0,0,0-.75-3.09,3,3,0,0,0-2.39-.93h-1.24v8.64h1.19A3.05,3.05,0,0,0,112.16,188.34Z"/><path class="cls-1" d="M192.15,108.24c0-2.11-1.88-8.27-3.87-8.35-2.65-.11-3.55,8-1.48,13.44C188.31,112.19,192.16,109,192.15,108.24Z"/><polygon class="cls-1" points="173.36 156.16 173.3 156.43 171.66 161.28 175.13 161.28 173.42 156.46 173.36 156.16"/><path class="cls-1" d="M167.75,100.23c0-3.74-2.1-6.12-3.75-6.12a1.37,1.37,0,0,0-1.56,1.48v12.48c.08.13.3.17.52.17C166.18,108.24,167.75,105.36,167.75,100.23Z"/></svg>