<svg xmlns="http://www.w3.org/2000/svg" viewBox="0 0 500 140.8"><defs><style>.cls-1{fill:#1e1e1d;}</style></defs><g id="Camada_2" data-name="Camada 2"><g id="Camada_1-2" data-name="Camada 1"><path class="cls-1" d="M279.66,63.93c-4.05,2.12-11.79,3.28-14.05,3.47a.66.66,0,0,0-.6.66V104.4a1.18,1.18,0,0,0,1.18,1.18h13.4a1.18,1.18,0,0,0,1.18-1.18V64.57A.74.74,0,0,0,279.66,63.93Z"/><path class="cls-1" d="M231.2,61.19V36a.74.74,0,0,0-1.07-.67c-4.28,2.3-12.64,3.54-15,3.74a.65.65,0,0,0-.6.65V63.84C214.53,74,213,96,197.26,96c-8.68,0-19.8-6.11-21.4-24.87-1.2-13.95,2.19-26,9.18-26,4,0,8.33,6.36,13.34,14.8a1.35,1.35,0,0,0,2.29-.16l7-11.6a2,2,0,0,0-.81-2.79c-5.09-2.57-13.38-4.85-18.39-4.85-17.41,0-31.52,16.37-31.52,32.73,0,15.92,12.31,32.33,33,32.33,11.72,0,30.6-4.26,41.26-37.7,1.33-4.15,2.24-6.43,5.33-6.88,4.41-.64,5.23,4.4,5.23,11.93V104.4a1.18,1.18,0,0,0,1.18,1.18h14.3a1.18,1.18,0,0,0,1.18-1.18V72.93C258.42,49.85,234.32,55.32,231.2,61.19Z"/><path class="cls-1" d="M498.05,63.81C494,65.94,486.26,67.1,484,67.29a.65.65,0,0,0-.6.65V104.4a1.18,1.18,0,0,0,1.18,1.18H498a1.18,1.18,0,0,0,1.18-1.18V64.46A.75.75,0,0,0,498.05,63.81Z"/><path class="cls-1" d="M349,57.1c-12.13,0-23.13,10.83-23.13,24.25s11,24.23,23.13,24.23,23.07-10.84,23.07-24.23S361.09,57.1,349,57.1Zm2.53,45.25c-3.92-.34-8.32-10-9.77-21.63s.7-20.74,4.65-20.39,8.32,10,9.76,21.65S355.49,102.69,351.55,102.35Z"/><path class="cls-1" d="M326.26,95.28a25.26,25.26,0,0,1-10.94,3.2c-7.59,0-12.4-7.6-13.59-17.76-1.37-11.64.7-20.74,4.65-20.4,2.36.2,5.67,4.77,8.43,10.45a1.7,1.7,0,0,0,3,.06l3.85-7.08a2,2,0,0,0-.56-2.56A20.3,20.3,0,0,0,309,57.1c-12.14,0-23.13,10.83-23.13,24.25s11,24.23,23.13,24.23c6.51,0,13.46-3.42,18.05-9.42A.59.59,0,0,0,326.26,95.28Z"/><path class="cls-1" d="M270.7,42.12c-4.62,1.23-7.49,6.37-6.33,11.47s5.92,8.11,10.54,6.87a9.47,9.47,0,0,0,6.44-11.41C280.18,44,275.42,40.86,270.7,42.12Z"/><path class="cls-1" d="M493.3,60.35a9.47,9.47,0,0,0,6.44-11.41c-1.17-5.09-5.93-8.19-10.65-6.93s-7.49,6.37-6.33,11.46S488.68,61.59,493.3,60.35Z"/><path class="cls-1" d="M478.28,95.19c-10.86,5.49-16.1,3.27-20.13-1.82,5.15-4.17,20.66-19.25,19.55-22.83C476.11,65.36,472.28,57,460.16,57c-10.26,0-24.61,11.35-22,28.07a24.05,24.05,0,0,0,2.12,7,23.07,23.07,0,0,0,2.23,3.61c-17.48,8.27-19.61-19.22-19.61-19.22,5.87-3.86,10.35-10.25,10.35-16.57,0-12.82-11.55-18.06-24.72-18-2.46,0-12.81.2-19.19.27a1.17,1.17,0,0,0-1.17,1.18v61a1.18,1.18,0,0,0,1.19,1.18h14.78a1.18,1.18,0,0,0,1.18-1.18V82.34a18.77,18.77,0,0,0,3.65-.73c1.31,2.33,3.79,24,20.18,24,5.64,0,10.62-1.18,17.78-5.38a22,22,0,0,0,14.7,5.31,19.32,19.32,0,0,0,13.11-5.09C475.67,99.58,481,95.44,478.28,95.19Zm-71.86-17.8c-.45,0-.9-.08-1.07-.36V51.4c0-1.21.45-3,3.21-3,3.38,0,7.69,4.89,7.69,12.59C416.25,71.47,413,77.39,406.42,77.39Zm52-17.15c4.09.16,7.9,12.81,7.95,17.15,0,1.6-7.87,8.12-11,10.46C451.13,76.61,453,60,458.42,60.24Z"/><path class="cls-1" d="M133.56,73.28a41.91,41.91,0,0,0-4.75.43,11.88,11.88,0,0,0-4,.88c-1.48.85-1.81,3.79-2.15,5.27-.66,3-1.34,6-4,7.35-4.44,2.22-8.78-1.15-13.37-4.72-4.21-3.27-9-7-14.8-8s-11.23.64-16.2,3.31c-4.57,2.45-8.58,6-12.92,8.86-8.86,5.92-19.61,9.38-30.1,11a94.24,94.24,0,0,1-25.33.63.11.11,0,0,0-.11.16,68.87,68.87,0,0,0,3.77,7.42.24.24,0,0,0,.19.11c1.83,0,3.65.08,5.45.18,2.26.14,4.1.32,5.73.47,7.05.68,14.77.32,21.5-2.09,6.07-2.17,11.57-5.82,16.69-9.67,11.19-8.4,19.72-12.54,25.52-12.35,12.08.43,21.17,8.25,26.66,14.73a57.52,57.52,0,0,0,16.93,13,.22.22,0,0,0,.27-.08A70,70,0,0,0,140.71,74C140.74,73.4,134.19,73.26,133.56,73.28Z"/><path class="cls-1" d="M111.54,117.88a124.51,124.51,0,0,0-16.15-9c-3.51-1.54-7.21-2.68-11.08-2a39.71,39.71,0,0,0-8,2.54c-7.77,3.08-15.51,6.24-23.41,9a92,92,0,0,1-14.35,4.07c-4.15.73-9.3.65-14.89.35a.11.11,0,0,0-.08.19c.93.84,1.9,1.64,2.88,2.42a.17.17,0,0,0,.15,0,35,35,0,0,1,4,.12c9,.78,17.89,2.07,26.77,3.5a38.82,38.82,0,0,0,8.39.76,46,46,0,0,0,8.28-1.66c8.66-2.12,17.84-4.16,26.79-3.74a30.81,30.81,0,0,1,7.08,1.1c1.32.39,2.72.9,4.14,1.47a.22.22,0,0,0,.22,0,68.41,68.41,0,0,0,5.65-4.68.22.22,0,0,0,0-.35C115.8,120.6,113.68,119.23,111.54,117.88Z"/><path class="cls-1" d="M107,130.11l-.61-.2a31.85,31.85,0,0,0-11-.76,79.79,79.79,0,0,0-12.3,1.78c-1.78.4-3.6.69-5.38,1.16s-3.82,1.06-5.76,1.5a30.61,30.61,0,0,1-10.53.69c-8.75-1.1-17.43-2.65-26.2-3.62l-1-.11a.11.11,0,0,0-.07.21,70.41,70.41,0,0,0,72.87-.24A.23.23,0,0,0,107,130.11Z"/><path class="cls-1" d="M107.27,100c-4.83-5.69-12.71-12.56-22.81-12.93-4.26-.16-12.28,4-22,11.3-5.53,4.15-11.47,8-18,10.37-7.59,2.76-16,3.19-24,2.43-1.59-.15-3.36-.32-5.53-.45-.66,0-1.33-.06-2-.08a.12.12,0,0,0-.1.18,70.46,70.46,0,0,0,5.51,6.89.19.19,0,0,0,.15.08,118.37,118.37,0,0,0,13.44.56,49.12,49.12,0,0,0,5.67-.61c6.88-1.13,13.58-3.54,20-6,5.5-2.13,11-4.31,16.44-6.46s10.88-3.91,16.84-2.82a40.29,40.29,0,0,1,10.2,3.83,147.1,147.1,0,0,1,13.42,7.82c1.95,1.25,4.43,2.83,7,4.41a.22.22,0,0,0,.28,0q1.88-2,3.59-4.14a.22.22,0,0,0-.08-.34A62.59,62.59,0,0,1,107.27,100Z"/><path class="cls-1" d="M31.81,75.58a96.66,96.66,0,0,1,10.74-1.2c3.53-.2,7.11-.09,10.6-.74A13.31,13.31,0,0,0,63,66.77c2.61-4.5,6.71-7.37,11-10.13,4.73-3.09,11-7.36,17-6.14a60.1,60.1,0,0,1,10.47,3.64c11.18,4.56,23.84,5.48,35.79,6.06l2.63.11a.24.24,0,0,0,.24-.26A70.39,70.39,0,0,0,.62,79.61a.21.21,0,0,0,.23.19,100.89,100.89,0,0,0,15.52-1.29C21.54,77.66,26.65,76.48,31.81,75.58Z"/><path class="cls-1" d="M140.37,65c-13.23-.35-26.52-1.66-39.13-5.87l-1-.33c-2.35-.81-4.69-1.68-7-2.61S88.48,54.55,86,55.4c-2.77,1-5.32,2.72-7.83,4.19a45.82,45.82,0,0,0-6.77,4.72,19.69,19.69,0,0,0-4.64,6.43C63.16,77.59,53.83,78.67,47,78.83A85.77,85.77,0,0,0,28.46,80.9c-3.48.78-7.24,1.51-11.17,2.15A106.86,106.86,0,0,1,1.54,84.41a.11.11,0,0,0-.11.14,69,69,0,0,0,2.4,8.76.24.24,0,0,0,.2.16c10.18,1,16.21,1.18,26.38-.37A69.53,69.53,0,0,0,63,79.36C70,74,78.84,69.45,87.81,69.63a24.51,24.51,0,0,1,3.63.35c7.16,1.23,12.71,5.55,17.18,9,1.31,1,5.66,5.29,7.57,4.15a1,1,0,0,0,.4-.48c1.42-3.39,1.43-7.57,3.82-10.53,1.55-1.92,3.94-2.36,6.24-2.74,1-.16,10.79-1.17,13.46-.56h0l.36.09a.22.22,0,0,0,.29-.22c0-1.17-.08-2.34-.17-3.5A.22.22,0,0,0,140.37,65Z"/></g></g></svg>