<svg xmlns="http://www.w3.org/2000/svg" viewBox="0 0 500 102.52"><defs><style>.cls-1{fill:#1e1e1d;}</style></defs><g id="Camada_2" data-name="Camada 2"><g id="Camada_1-2" data-name="Camada 1"><path class="cls-1" d="M165.84,10c-6.74,1.8-10.92,9.29-9.22,16.71s8.62,11.82,15.35,10c6.88-1.83,11.09-9.21,9.39-16.63S172.71,8.2,165.84,10Z"/><path class="cls-1" d="M490.24,36.61c6.87-1.83,11.08-9.21,9.38-16.63S491,8,484.1,9.88s-10.92,9.29-9.22,16.71S483.5,38.41,490.24,36.61Z"/><path class="cls-1" d="M178.9,41.82c-5.9,3.1-17.19,4.78-20.48,5.06a1,1,0,0,0-.87,1v53a1.72,1.72,0,0,0,1.72,1.72h19.52a1.72,1.72,0,0,0,1.72-1.72v-58A1.09,1.09,0,0,0,178.9,41.82Z"/><path class="cls-1" d="M108.28,37.84V1.09a1.07,1.07,0,0,0-1.57-1c-6.23,3.34-18.42,5.15-21.86,5.43a1,1,0,0,0-.88,1V41.7c0,14.84-2.26,46.87-25.16,46.87-12.65,0-28.85-8.92-31.18-36.25C25.87,32,30.82,14.41,41,14.41c5.79,0,12.14,9.28,19.45,21.58a2,2,0,0,0,3.34-.23L73.91,18.85a2.89,2.89,0,0,0-1.18-4.08c-7.41-3.74-19.5-7-26.8-7C20.55,7.72,0,31.57,0,55.42c0,23.19,17.93,47.1,48.14,47.1,17.09,0,44.6-6.2,60.14-54.94,1.92-6,3.25-9.37,7.75-10,6.43-.93,7.62,6.41,7.62,17.38V100.8a1.72,1.72,0,0,0,1.72,1.72h20.85a1.72,1.72,0,0,0,1.72-1.72V54.94C147.94,21.31,112.82,29.28,108.28,37.84Z"/><path class="cls-1" d="M497.16,41.66c-5.9,3.1-17.19,4.78-20.48,5.06a1,1,0,0,0-.87,1V100.8a1.72,1.72,0,0,0,1.72,1.72h19.53a1.72,1.72,0,0,0,1.72-1.72V42.6A1.09,1.09,0,0,0,497.16,41.66Z"/><path class="cls-1" d="M280,31.87c-17.69,0-33.72,15.79-33.72,35.35s16,35.3,33.72,35.3,33.61-15.79,33.61-35.3S297.56,31.87,280,31.87Zm3.67,65.95c-5.71-.5-12.12-14.62-14.23-31.52s1-30.23,6.78-29.72,12.12,14.62,14.23,31.56S289.4,98.32,283.65,97.82Z"/><path class="cls-1" d="M246.8,87.51c-4.12,2.39-11,4.67-15.94,4.67-11.06,0-18.07-11.08-19.81-25.88-2-17,1-30.23,6.78-29.73,3.45.29,8.27,7,12.29,15.22a2.48,2.48,0,0,0,4.4.1l5.61-10.33a2.92,2.92,0,0,0-.82-3.73,29.55,29.55,0,0,0-17.71-6c-17.69,0-33.71,15.79-33.71,35.35s16,35.3,33.71,35.3c9.48,0,19.61-5,26.3-13.73A.86.86,0,0,0,246.8,87.51Z"/><path class="cls-1" d="M468.35,87.38c-15.83,8-23.46,4.77-29.34-2.65,7.5-6.08,30.11-28.05,28.5-33.27-2.33-7.55-7.91-19.68-25.57-19.68-15,0-35.87,16.53-32,40.9A35,35,0,0,0,413,82.86a33,33,0,0,0,3.26,5.26c-25.49,12.07-28.58-28-28.58-28,8.54-5.62,15.08-14.93,15.08-24.14,0-18.68-16.84-26.32-36-26.17-3.58,0-18.67.29-28,.38a1.71,1.71,0,0,0-1.69,1.72v88.9a1.72,1.72,0,0,0,1.72,1.72h21.54a1.72,1.72,0,0,0,1.72-1.72V68.65a26.5,26.5,0,0,0,5.32-1.06c1.91,3.4,5.52,34.93,29.41,34.93,8.22,0,15.47-1.72,25.92-7.84a32,32,0,0,0,21.42,7.74A28.14,28.14,0,0,0,463.24,95C464.54,93.78,472.33,87.74,468.35,87.38ZM363.63,61.44c-.66,0-1.32-.12-1.57-.52V23.57c0-1.76.66-4.43,4.68-4.43,4.93,0,11.21,7.13,11.21,18.34C378,52.82,373.27,61.44,363.63,61.44Zm75.77-25c6,.23,11.51,18.67,11.6,25,0,2.33-11.49,11.84-16,15.24C428.78,60.31,431.49,36.14,439.4,36.45Z"/></g></g></svg>