<svg data-name="Camada 1" xmlns="http://www.w3.org/2000/svg" viewBox="0 0 250 250"><path d="M81.43 66.49a48.33 48.33 0 0 1 2.5-46 100.55 100.55 0 0 0-48.37 46.25 24.72 24.72 0 0 1 3.44-.25zm87.14 0H211a24.72 24.72 0 0 1 3.46.25 100.55 100.55 0 0 0-48.37-46.27 48.33 48.33 0 0 1 2.5 46z"/><path d="M211 69h-46.34l1.68-3.53a45.76 45.76 0 1 0-82.68 0L85.34 69H39a22 22 0 0 0-22 22v51.14A107.93 107.93 0 0 0 120.28 249.9c1.55.07 3.11.1 4.65.1a106.61 106.61 0 0 0 76.3-32.09 109.2 109.2 0 0 0 31.7-77.2V90.92A22 22 0 0 0 211 69zm-42.75 137.08a8.39 8.39 0 0 1 1 4v.67a8.51 8.51 0 0 1-.95 4.06 6.6 6.6 0 0 1-2.66 2.73 7.87 7.87 0 0 1-3.87 1 8.1 8.1 0 0 1-3.91-.94 6.56 6.56 0 0 1-2.66-2.71 8.42 8.42 0 0 1-1-4.08v-.55a8.74 8.74 0 0 1 .92-4.06 6.64 6.64 0 0 1 2.65-2.73 8.4 8.4 0 0 1 7.8 0 6.6 6.6 0 0 1 2.68 2.61zm-17.09 4.09v.55a7.53 7.53 0 0 1-1 3.82 7.12 7.12 0 0 1-2.76 2.71 8.12 8.12 0 0 1-3.92 1h-5.78v-15.6h5.58a8.42 8.42 0 0 1 4 1 7.1 7.1 0 0 1 2.83 2.71 7.46 7.46 0 0 1 1.05 3.81zm-27.19-1v9.08h-4.52v-15.6H124l5.27 9.08v-9.08h4.51v15.6h-4.51zm-33.85 9.08H87.2l-3.71-10.75.47 8.33v2.41h-4.54v-15.6h6l3.26 10 3.25-10h6v15.6h-4.56v-2.41l.46-8.34zm-34.44-55.42a2.27 2.27 0 0 0 2.11 1c1.76 0 2.63-.72 2.59-2.18h4.51a5.22 5.22 0 0 1-2 4.13 8 8 0 0 1-5.07 1.54 7 7 0 0 1-5.34-2 8.1 8.1 0 0 1-1.91-5.78V159a9.16 9.16 0 0 1 .88-4.13 6.32 6.32 0 0 1 2.5-2.71 7.43 7.43 0 0 1 3.75-.94 7.84 7.84 0 0 1 5.1 1.56 5.86 5.86 0 0 1 2.15 4.25h-4.54a2.08 2.08 0 0 0-.7-1.71 3.05 3.05 0 0 0-2-.62q-2.4 0-2.58 3.62v1.19a6.64 6.64 0 0 0 .55 3.32zM64 177.07h6l3.25 10 3.26-10h6v15.6H78v-2.41l.45-8.35-3.75 10.76h-2.92l-3.71-10.74.47 8.33v2.41H64zm3-10 6-15.6h4.34l6.16 15.6h-4.45l-1-2.73H72.5l-.92 2.73zm82.66 25.58h-2.92l-3.71-10.74.47 8.33v2.41H139v-15.6h6l3.25 10 3.26-10h6v15.6H153v-2.41l.45-8.35zm-40.09-15.6a8.37 8.37 0 0 1 4 1 7.12 7.12 0 0 1 2.82 2.7 7.46 7.46 0 0 1 1 3.85v.55a7.5 7.5 0 0 1-1 3.82 7.12 7.12 0 0 1-2.76 2.71 8 8 0 0 1-3.92 1H104v-15.6zm-.55-10v-15.6h4.52v15.6zm6.49-45.05c-5.91 0-11.26-5.27-11.26-11.79s5.35-11.81 11.26-11.81a9.92 9.92 0 0 1 5.92 2 1 1 0 0 1 .27 1.25l-1.87 3.45a.83.83 0 0 1-1.47 0c-1.35-2.76-3-5-4.11-5.08-1.92-.17-2.93 4.26-2.26 9.93.58 5 2.92 8.65 6.62 8.65a12.26 12.26 0 0 0 5.32-1.56.29.29 0 0 1 .37.43 11.4 11.4 0 0 1-8.79 4.53zm-16.58-22a4.23 4.23 0 0 1-5.13-3.35 4.64 4.64 0 0 1 3.08-5.58 4.27 4.27 0 0 1 5.19 3.37 4.63 4.63 0 0 1-3.14 5.56zm2.85 2v19.39a.56.56 0 0 1-.57.57h-6.52a.57.57 0 0 1-.58-.57V103.7a.32.32 0 0 1 .29-.32 23.4 23.4 0 0 0 6.84-1.7.37.37 0 0 1 .54.32zm-2.06-33.15a.11.11 0 0 1-.08 0A36.2 36.2 0 0 1 97 65.46a.06.06 0 0 1 .05-.09h1c1.06.06 1.92.15 2.69.22a27.08 27.08 0 0 0 11.69-1.18 34.38 34.38 0 0 0 8.77-5.05c4.75-3.57 8.65-5.58 10.72-5.5 4.92.18 8.76 3.52 11.11 6.29a30.47 30.47 0 0 0 8.78 6.8.12.12 0 0 1 0 .17c-.56.7-1.14 1.37-1.75 2a.12.12 0 0 1-.14 0c-1.25-.77-2.46-1.55-3.41-2.16a70.73 70.73 0 0 0-6.53-3.8 19.77 19.77 0 0 0-5-1.87c-2.9-.52-5.52.33-8.19 1.38s-5.33 2.11-8 3.14a49.46 49.46 0 0 1-9.79 3.02 23 23 0 0 1-2.76.29 54.94 54.94 0 0 1-6.52-.27zm2.54 2.41a33.15 33.15 0 0 0 7.24-.17 44.55 44.55 0 0 0 7-2c3.85-1.33 7.62-2.87 11.4-4.37a19.31 19.31 0 0 1 3.89-1.23 9.39 9.39 0 0 1 5.4 1 60.56 60.56 0 0 1 7.81 4.39l3.11 2a.1.1 0 0 1 0 .17 33.24 33.24 0 0 1-2.75 2.28.11.11 0 0 1-.11 0c-.69-.27-1.37-.52-2-.71a14.34 14.34 0 0 0-3.44-.54c-4.36-.2-8.83.79-13 1.82a22.25 22.25 0 0 1-4 .81 18.67 18.67 0 0 1-4.08-.37c-4.33-.7-8.67-1.32-13-1.7a16.59 16.59 0 0 0-2-.06h-.07c-.48-.38-1-.78-1.41-1.18a.06.06 0 0 1 .01-.14zM135 98.36c5.88 0 11.23 5.27 11.23 11.81S140.89 122 135 122s-11.26-5.27-11.26-11.79S129.1 98.36 135 98.36zm-27.64-23.21a.05.05 0 0 1 0-.1h.47c4.27.47 8.5 1.23 12.76 1.76a15 15 0 0 0 5.12-.33c1-.22 1.87-.49 2.81-.74s1.75-.36 2.62-.56a40.09 40.09 0 0 1 6-.87 15.4 15.4 0 0 1 5.37.38l.29.09a.11.11 0 0 1 0 .2 34.26 34.26 0 0 1-35.48.12zm18.49 86.54a7.11 7.11 0 0 0-2.16-.79 20 20 0 0 1-2.6-.76 6.41 6.41 0 0 1-1.73-1 3.24 3.24 0 0 1-1-1.33A4.77 4.77 0 0 1 118 156a4.06 4.06 0 0 1 .79-2.43 5.1 5.1 0 0 1 2.18-1.68 8 8 0 0 1 3.1-.59 8 8 0 0 1 4.93 1.3 4.19 4.19 0 0 1 1.81 3.58h-4.53a1.64 1.64 0 0 0-.59-1.25 2.47 2.47 0 0 0-2.88-.11 1.21 1.21 0 0 0-.52 1 1.12 1.12 0 0 0 .53 1 6.44 6.44 0 0 0 1.87.71 10.29 10.29 0 0 1 4.69 1.91 4.23 4.23 0 0 1 1.36 3.33 4 4 0 0 1-1.67 3.38 7.62 7.62 0 0 1-4.59 1.24 9.78 9.78 0 0 1-3.62-.64 5.46 5.46 0 0 1-2.46-1.82 4.72 4.72 0 0 1-.86-2.83H122a2 2 0 0 0 .62 1.67 3.48 3.48 0 0 0 2.08.48 2 2 0 0 0 1.28-.36 1.21 1.21 0 0 0 .45-1 1.32 1.32 0 0 0-.58-1.2zm0 15.38h4.34l6.16 15.6h-4.54l-1-2.73h-5.58l-.93 2.73h-4.52zm8.8-10v-15.6h11.87V155h-7.34v2.32h6.13v3.48h-6.13v2.84h7.27v3.48zm19 0V155h-4.82v-3.48h14.33V155h-5v12.12zm-.46-102a28 28 0 0 1-8.24-6.3c-2.68-3.16-7.1-7-13-7.18-2.82-.09-7 1.93-12.42 6a31.31 31.31 0 0 1-8.13 4.71 24.72 24.72 0 0 1-10.47 1c-.79-.08-1.68-.16-2.79-.23-.87-.05-1.76-.08-2.65-.09a.1.1 0 0 1-.09.02 33.08 33.08 0 0 1-1.84-3.61.05.05 0 0 1 .06-.07A45.87 45.87 0 0 0 106 59a36.44 36.44 0 0 0 14.66-5.34c2.11-1.41 4.06-3.13 6.29-4.32a12.33 12.33 0 0 1 7.89-1.61c2.82.49 5.15 2.29 7.2 3.89 2.23 1.74 4.35 3.38 6.51 2.3 1.31-.66 1.65-2.15 2-3.58.16-.72.32-2.15 1-2.57a5.82 5.82 0 0 1 1.94-.43 22.27 22.27 0 0 1 2.31-.21c.31 0 3.5.06 3.48.37a34 34 0 0 1-5.93 17.56.1.1 0 0 1-.17.07zm5.94-20.08L159 45c-1.3-.29-6.08.2-6.55.28a4.48 4.48 0 0 0-3 1.33c-1.17 1.44-1.17 3.47-1.86 5.13a.5.5 0 0 1-.2.23c-.93.56-3.05-1.53-3.68-2-2.18-1.69-4.88-3.79-8.37-4.39a10.41 10.41 0 0 0-1.77-.17c-4.36-.09-8.69 2.11-12.06 4.73a33.82 33.82 0 0 1-15.88 6.69 44.63 44.63 0 0 1-12.94.17.1.1 0 0 1-.09-.07 32.42 32.42 0 0 1-1.17-4.27.05.05 0 0 1 0-.07 52.14 52.14 0 0 0 7.67-.66c1.91-.31 3.74-.67 5.44-1.05a42.53 42.53 0 0 1 9-1c3.34-.07 7.88-.6 9.62-3.94a10 10 0 0 1 2.26-3.13 23.4 23.4 0 0 1 3.3-2.29 21.57 21.57 0 0 1 3.82-2 4.93 4.93 0 0 1 3.53.38c1.12.46 2.26.88 3.41 1.27l.48.16a65.4 65.4 0 0 0 19.06 2.86.11.11 0 0 1 .1.1q.06.85.09 1.71a.12.12 0 0 1-.09.05zm-66.85 106.5 3.25 9.95 3.26-9.95h6v15.6h-4.55v-2.41l.45-8.34L97 167.09h-2.92l-3.71-10.74.46 8.33v2.41h-4.54v-15.6zm-.68 37.37a2.36 2.36 0 0 0 1.68.54 2.27 2.27 0 0 0 1.67-.54 2.53 2.53 0 0 0 .52-1.8v-10H100v10a5.41 5.41 0 0 1-1.76 4.29 8.78 8.78 0 0 1-9.92 0 5.31 5.31 0 0 1-1.83-4.19v-10.09H91v10a2.44 2.44 0 0 0 .6 1.79zm10.32 13.78h4.54v10a2.4 2.4 0 0 0 .56 1.8 2.27 2.27 0 0 0 1.67.55 2.21 2.21 0 0 0 1.67-.55 2.53 2.53 0 0 0 .53-1.8v-10h4.54v10a5.37 5.37 0 0 1-1.77 4.29 7.3 7.3 0 0 1-5 1.54 7.38 7.38 0 0 1-4.94-1.54 5.26 5.26 0 0 1-1.83-4.19zm90.49-40.95a7.11 7.11 0 0 0-2.16-.79 20 20 0 0 1-2.6-.76 6.26 6.26 0 0 1-1.73-1 3.24 3.24 0 0 1-1-1.33 4.77 4.77 0 0 1-.33-1.87 4 4 0 0 1 .79-2.43 5.1 5.1 0 0 1 2.18-1.68 8 8 0 0 1 3.1-.59 8 8 0 0 1 4.86 1.32 4.19 4.19 0 0 1 1.81 3.58h-4.53a1.64 1.64 0 0 0-.59-1.25 2.47 2.47 0 0 0-2.88-.11 1.21 1.21 0 0 0-.52 1 1.12 1.12 0 0 0 .53 1 6.44 6.44 0 0 0 1.87.71 10.29 10.29 0 0 1 4.69 1.91 4.23 4.23 0 0 1 1.36 3.33 4 4 0 0 1-1.67 3.38 7.64 7.64 0 0 1-4.6 1.24 9.76 9.76 0 0 1-3.61-.64 5.46 5.46 0 0 1-2.46-1.82 4.72 4.72 0 0 1-.86-2.83h4.54a2 2 0 0 0 .62 1.67 3.48 3.48 0 0 0 2.08.48 2 2 0 0 0 1.27-.36 1.19 1.19 0 0 0 .46-1 1.34 1.34 0 0 0-.62-1.16zm-7.77 22.78v.67a8.54 8.54 0 0 1-.94 4.07 6.58 6.58 0 0 1-2.66 2.72 8.48 8.48 0 0 1-7.78 0 6.52 6.52 0 0 1-2.67-2.71 8.53 8.53 0 0 1-1-4.08v-.54a8.59 8.59 0 0 1 .93-4.06 6.44 6.44 0 0 1 2.64-2.73 8.36 8.36 0 0 1 7.8 0 6.69 6.69 0 0 1 2.66 2.69 8.42 8.42 0 0 1 1.02 3.97zm-7.47-17.38-1-2.73h-5.58l-.93 2.73h-4.52l6-15.6h4.34l6.16 15.6zm23.27-45.7v-17.75a.32.32 0 0 1 .29-.32 23 23 0 0 0 6.84-1.69.36.36 0 0 1 .54.32v19.44a.56.56 0 0 1-.57.57H201a.57.57 0 0 1-.56-.57zM203.21 91a4.28 4.28 0 0 1 5.19 3.38 4.61 4.61 0 0 1-3.14 5.55 4.22 4.22 0 0 1-5.13-3.34 4.65 4.65 0 0 1 3.08-5.59zM176 99.73c0 3.08-2.19 6.19-5 8.07 0 0 1 13.38 9.55 9.35a10.47 10.47 0 0 1-1.09-1.75 11.74 11.74 0 0 1-1-3.41c-1.29-8.14 5.7-13.66 10.69-13.66 5.91 0 7.77 4 8.55 6.57.53 1.75-7 9.09-9.52 11.12 2 2.48 4.51 3.56 9.8.88 1.33.13-1.27 2.14-1.71 2.55a9.37 9.37 0 0 1-6.39 2.48 10.68 10.68 0 0 1-7.15-2.59A15.76 15.76 0 0 1 174 122c-8 0-9.19-10.53-9.82-11.67a8.87 8.87 0 0 1-1.78.36v10.74a.57.57 0 0 1-.58.57h-7.19a.57.57 0 0 1-.58-.57V91.69a.58.58 0 0 1 .57-.58c3.1 0 8.15-.12 9.34-.12 6.45-.05 12.04 2.5 12.04 8.74zm-51-88.25a34.28 34.28 0 0 1 33.9 29.24.11.11 0 0 1-.11.13l-1.29-.06c-5.81-.28-12-.73-17.42-2.94a29.09 29.09 0 0 0-5.1-1.78c-2.89-.59-6 1.49-8.25 3a15.27 15.27 0 0 0-5.32 4.93 6.52 6.52 0 0 1-4.8 3.35 42.33 42.33 0 0 1-5.16.36 46 46 0 0 0-5.23.58c-2.51.44-5 1-7.52 1.43a50.37 50.37 0 0 1-7.56.63.12.12 0 0 1-.11-.1 34.75 34.75 0 0 1-.3-4.48A34.28 34.28 0 0 1 125 11.48zM56.82 90.29a24 24 0 0 1 8.95 2.36 1 1 0 0 1 .4 1.36l-3.38 5.65a.67.67 0 0 1-1.12.08c-2.44-4.11-4.56-7.21-6.5-7.21-3.4 0-5.05 5.87-4.47 12.66.78 9.13 6.2 12.11 10.42 12.11 7.65 0 8.41-10.7 8.41-15.66V89.89a.33.33 0 0 1 .29-.32c1.15-.1 5.22-.7 7.31-1.82a.36.36 0 0 1 .52.33v12.27c1.52-2.86 13.25-5.52 13.25 5.72v15.32a.57.57 0 0 1-.57.57h-7a.56.56 0 0 1-.57-.57v-15.32c0-3.67-.4-6.12-2.55-5.81-1.5.22-1.95 1.33-2.59 3.35C72.46 119.89 63.27 122 57.56 122a15.73 15.73 0 0 1-16.09-15.73c0-8.01 6.87-15.98 15.35-15.98zM194.49 215.2A99.8 99.8 0 0 1 125 243.3c-1.47 0-2.94 0-4.41-.1a101.21 101.21 0 0 1-96.82-101.13.88.88 0 1 1 1.76 0 99.21 99.21 0 0 0 95.12 99.37 98.09 98.09 0 0 0 72.62-27.52 101.66 101.66 0 0 0 31.19-73.08.89.89 0 1 1 1.77 0 103.48 103.48 0 0 1-31.74 74.36z"/><path d="M161.73 205.87q-3 0-2.95 4.38v.47a5.84 5.84 0 0 0 .74 3.16 2.64 2.64 0 0 0 4.35 0 5.47 5.47 0 0 0 .8-3.08v-.65a5.57 5.57 0 0 0-.77-3.18 2.5 2.5 0 0 0-2.17-1.1zm15.41-25.58c-2 0-2.95 1.46-2.95 4.38v.47a5.84 5.84 0 0 0 .74 3.16 2.47 2.47 0 0 0 2.24 1.15 2.42 2.42 0 0 0 2.11-1.12 5.49 5.49 0 0 0 .81-3.08v-.66a5.53 5.53 0 0 0-.78-3.18 2.51 2.51 0 0 0-2.17-1.12zm-49.12 1.74-.07-.29-.05.27-1.65 4.84h3.47l-1.7-4.82zm15.45 24.09h-1.24v8.64h1.19a3.06 3.06 0 0 0 2.41-.84 4.62 4.62 0 0 0 .78-2.92v-.85a4.89 4.89 0 0 0-.75-3.09 3 3 0 0 0-2.39-.94zM75.3 156.46l-.07-.3-.05.27-1.65 4.85H77l-1.7-4.82zm60.94-36.07c1.92.17 3-4.27 2.27-9.91s-2.85-10.38-4.76-10.55-3 4.27-2.26 9.93 2.84 10.37 4.75 10.53zm-24.08 67.95a4.61 4.61 0 0 0 .78-2.91v-.86a4.89 4.89 0 0 0-.75-3.09 3 3 0 0 0-2.39-.93h-1.24v8.64h1.19a3.05 3.05 0 0 0 2.41-.85zm79.99-80.1c0-2.11-1.88-8.27-3.87-8.35-2.65-.11-3.55 8-1.48 13.44 1.51-1.14 5.36-4.33 5.35-5.09zm-18.79 47.92-.06.27-1.64 4.85h3.47l-1.71-4.82-.06-.3zm-5.61-55.93c0-3.74-2.1-6.12-3.75-6.12a1.37 1.37 0 0 0-1.56 1.48v12.48c.08.13.3.17.52.17 3.22 0 4.79-2.88 4.79-8.01z"/></svg>